<?xml version="1.0" encoding="utf-8"?>
<svg id="svg2" viewBox="39.603 40.945 500 670" xmlns="http://www.w3.org/2000/svg" xmlns:bx="https://boxy-svg.com">
  <desc>Source: openclipart.org/detail/209545</desc>
  <defs>
    <style bx:fonts="Aclonica">@import url(https://fonts.googleapis.com/css2?family=Aclonica%3Aital%2Cwght%400%2C400&amp;display=swap);</style>
  </defs>
  <path id="path222" style="fill: rgb(255, 255, 255);" d="M 96.878 426.786 C 107.111 427.17 114.523 430.224 119.203 435.826 C 123.89 440.512 124.836 445.341 122.023 450.497 C 119.203 454.714 113.665 456.83 105.235 456.83 C 97.283 456.354 90.329 454.254 84.236 450.497 C 78.706 446.769 77.519 441.847 80.814 435.826 C 84.472 429.734 89.869 426.786 96.878 426.786 Z"/>
  <text style="fill: rgb(61, 61, 61); font-family: Aclonica; font-size: 92px; font-weight: 700; letter-spacing: -4.8px; word-spacing: -24px; white-space: pre;" x="81.94" y="364.702">Spotify</text>
  <rect x="77.097" y="381.22" width="300.625" height="8.907" style="stroke: rgb(0, 0, 0); fill: rgb(255, 255, 255);"/>
  <path style="fill: rgb(146, 191, 78); stroke: rgb(146, 191, 78); stroke-linecap: round;" d="M 292.957 293.302 L 299.702 285.834 C 299.702 285.834 303.797 282.944 305.001 282.704 C 306.205 282.464 311.505 280.776 313.673 281.498 C 315.841 282.221 317.286 282.704 318.731 283.426 C 320.177 284.149 323.067 285.594 324.513 287.762 C 325.958 289.93 326.198 289.207 326.921 290.653 C 327.644 292.098 327.644 292.579 328.126 294.025 C 328.608 295.47 328.848 296.433 328.848 296.674 C 328.848 296.915 324.753 294.988 324.03 294.506 C 323.307 294.025 322.344 293.061 320.899 292.338 C 319.454 291.616 319.936 291.616 318.249 290.893 C 316.562 290.17 317.286 290.17 315.118 289.689 C 312.95 289.207 314.154 289.207 311.746 288.966 C 309.337 288.725 310.541 288.725 308.614 288.725 C 306.687 288.725 307.41 288.485 305.001 288.966 C 302.592 289.448 302.833 288.725 301.148 289.689 C 299.462 290.653 297.052 292.338 296.812 292.338">
    <animate attributeName="fill" values="rgb(146, 191, 78); rgb(146, 191, 78)" begin="10.55s" dur="5s" fill="freeze" repeatCount="indefinite"/>
    <animate attributeName="stroke" values="rgb(146, 191, 78); rgb(146, 191, 78)" begin="10.55s" dur="5s" fill="freeze"/>
  </path>
  <path style="fill: rgb(146, 191, 78); stroke: rgb(146, 191, 78); stroke-linecap: round;" d="M 287.278 272.605 L 297.532 261.253 C 297.532 261.253 303.757 256.859 305.587 256.494 C 307.417 256.128 315.473 253.563 318.769 254.662 C 322.065 255.76 324.261 256.494 326.459 257.593 C 328.656 258.691 333.051 260.888 335.247 264.183 C 337.444 267.478 337.81 266.38 338.909 268.578 C 340.007 270.775 340.007 271.506 340.739 273.703 C 341.474 275.901 341.838 277.364 341.838 277.731 C 341.838 278.098 335.612 275.168 334.514 274.436 C 333.415 273.703 331.951 272.238 329.754 271.14 C 327.558 270.041 328.289 270.041 325.725 268.943 C 323.162 267.844 324.261 267.844 320.965 267.113 C 317.67 266.38 319.501 266.38 315.84 266.014 C 312.179 265.648 314.008 265.648 311.08 265.648 C 308.15 265.648 309.249 265.282 305.587 266.014 C 301.924 266.746 302.291 265.648 299.729 267.113 C 297.166 268.578 293.503 271.14 293.137 271.14"/>
  <path style="fill: rgb(146, 191, 78); stroke: rgb(146, 191, 78); stroke-linecap: round; stroke-miterlimit: 13.69;" d="M 288.151 284.925 L 297.331 274.761 C 297.331 274.761 302.904 270.827 304.543 270.5 C 306.181 270.173 313.394 267.876 316.345 268.86 C 319.296 269.843 321.262 270.5 323.23 271.483 C 325.197 272.467 329.131 274.434 331.098 277.384 C 333.065 280.335 333.392 279.352 334.376 281.319 C 335.359 283.286 335.359 283.941 336.015 285.908 C 336.673 287.875 336.999 289.185 336.999 289.514 C 336.999 289.843 331.425 287.219 330.441 286.564 C 329.458 285.908 328.147 284.596 326.18 283.613 C 324.214 282.629 324.868 282.629 322.573 281.646 C 320.278 280.662 321.262 280.662 318.312 280.007 C 315.361 279.352 317 279.352 313.723 279.023 C 310.445 278.695 312.082 278.695 309.46 278.695 C 306.838 278.695 307.822 278.368 304.543 279.023 C 301.264 279.679 301.592 278.695 299.298 280.007 C 297.004 281.319 293.724 283.613 293.397 283.613"/>
  <path style="fill: rgb(146, 191, 78); stroke: rgb(146, 191, 78); stroke-linecap: round;" d="M 287.2 259.081 L 299.154 245.847 C 299.154 245.847 306.411 240.725 308.544 240.3 C 310.677 239.873 320.069 236.883 323.911 238.164 C 327.754 239.444 330.314 240.3 332.876 241.581 C 335.437 242.861 340.561 245.422 343.121 249.263 C 345.682 253.104 346.109 251.824 347.39 254.387 C 348.67 256.948 348.67 257.8 349.523 260.361 C 350.38 262.924 350.804 264.629 350.804 265.057 C 350.804 265.485 343.546 262.069 342.266 261.216 C 340.985 260.361 339.279 258.653 336.717 257.373 C 334.157 256.092 335.009 256.092 332.02 254.812 C 329.033 253.531 330.314 253.531 326.471 252.679 C 322.63 251.824 324.765 251.824 320.497 251.398 C 316.229 250.971 318.361 250.971 314.948 250.971 C 311.532 250.971 312.813 250.544 308.544 251.398 C 304.274 252.251 304.702 250.971 301.715 252.679 C 298.727 254.387 294.457 257.373 294.03 257.373"/>
</svg>